<?xml version="1.0" encoding="utf-8"?>
<!-- Generator: Adobe Illustrator 17.1.0, SVG Export Plug-In . SVG Version: 6.00 Build 0)  -->
<!DOCTYPE svg PUBLIC "-//W3C//DTD SVG 1.1//EN" "http://www.w3.org/Graphics/SVG/1.1/DTD/svg11.dtd">
<svg version="1.1" id="Layer_1" xmlns="http://www.w3.org/2000/svg" xmlns:xlink="http://www.w3.org/1999/xlink" x="0px" y="0px"
	 viewBox="0 0 1200 1000" enable-background="new 0 0 1200 1000" xml:space="preserve">
<g>
	<path fill="#FFFFFF" d="M65.1,403.7h61.2c44.3,0,63.9,22.6,63.9,63.5c0,20.6-8.7,42.3-28.6,50.2c21,9.3,33.3,26,33.3,56.9
		c0,39.6-17.6,69.5-64.5,69.5H65.1V403.7z M106.4,502.2h15c15.6,0,27.6-10.6,27.6-30.6c0-22.3-8.7-33.9-27-33.9h-15.6V502.2z
		 M106.4,610h17.3c22,0,29.9-12.6,29.9-36.9c0-24.6-9.3-36.9-33.9-36.9h-13.3V610z"/>
	<path fill="#FFFFFF" d="M264.8,403.7H306V585c0,17.6,7,26.3,22,26.3c15,0,22-8.7,22-26.3V403.7h41.3v179.7
		c0,41.3-24,63.9-63.2,63.9c-39.3,0-63.2-22.6-63.2-63.9V403.7z"/>
	<path fill="#FFFFFF" d="M539.6,462.9c-1.7-20.6-12.6-26.6-22-26.6c-13.3,0-20.6,8.6-20.6,23.6c0,40.9,83.8,60.6,83.8,125.8
		c0,39.6-26.6,61.6-65.2,61.6c-38.3,0-60.2-30.6-61.9-66.5L493,575c1.7,24.3,11.3,36.3,24.6,36.3c14.3,0,24-7.7,24-22
		c0-47.6-83.8-60.2-83.8-129.1c0-38.3,23.3-59.9,63.9-59.9c33.6,0,53.6,24.3,57.2,58.2L539.6,462.9z"/>
	<path fill="#FFFFFF" d="M645.4,643.9V403.7h41.3v97.8h43.9v-97.8h41.3v240.2h-41.3V537.5h-43.9v106.5H645.4z"/>
	<path fill="#FFFFFF" d="M845,643.9V403.7h110.5v35.9h-69.2v61.9h53.2v35.9h-53.2V608h73.9v35.9H845z"/>
	<path fill="#FFFFFF" d="M1024,643.9V403.7h41.3V608h64.9v35.9H1024z"/>
</g>
<g>
	<path fill="#FFFFFF" d="M298.8,764c-0.2-0.9-0.9-1.2-1.6-1.3l-2.2-0.3v-0.9c0,0,1.9-0.9,4.4-0.9c2.8,0,4.2,0.9,4.7,3.8l3.1,19.5
		c2.4-2.7,7.3-9.3,9.1-14.2l-0.9-5.6c-0.2-0.9-0.9-1.2-1.6-1.3l-1.9-0.3v-0.9c0,0,1.6-0.9,4.1-0.9c2.8,0,4.2,0.9,4.7,3.8l3.1,19.5
		c2.8-3.1,8.8-11.6,9.4-16.7c-1.6-0.6-2.8-1.9-2.8-3.5c0-2.1,1.6-3.5,3.5-3.5s3.8,1.3,3.8,3.5c0,5.7-6.6,15.1-12.9,21.7
		c-0.9,0.9-3.1,3.1-4.1,4.4h-0.9l-2.8-16.3c-2.4,4.1-5.6,8.4-8.9,11.9c-0.9,0.9-3.1,3.1-4.1,4.4h-0.9L298.8,764z"/>
	<path fill="#FFFFFF" d="M343.1,778.4c0-10.1,5.7-18.2,15.4-18.2c6.9,0,10.7,3.5,10.7,11.3c0,10.1-5.3,18.2-15.1,18.2
		C347.2,789.7,343.1,786.3,343.1,778.4z M363.5,771.5c0-5-1.3-9.4-5.3-9.4c-5.7,0-9.4,7.2-9.4,16.3c0,5,1.6,9.4,5.7,9.4
		C360.1,787.8,363.5,780.6,363.5,771.5z"/>
	<path fill="#FFFFFF" d="M380.8,765.8c0.2-1.6-0.2-2.4-1.9-2.8l-2.8-0.6v-0.9c1.3-0.3,4.1-0.9,6.3-0.9c2.8,0,4.2,1.8,3.8,5.3l-0.2,2
		c1.9-4.3,4.4-7.7,8.1-7.7c1.6,0,2.8,1.3,2.8,2.8c0,2.2-1.3,3.5-3.2,3.5c-1.9,0-2.8-1.3-3.1-2.2c-1.4,0-3.7,2.9-4.8,4.6l-2.4,20.2
		H378L380.8,765.8z"/>
	<path fill="#FFFFFF" d="M406.9,745.1c0.2-1.6,0.1-1.5-1.6-1.9l-2.8-0.6v-1.3l5.7-0.6c1.6-0.2,3.9-0.5,5-1.3l-0.9,5.7l-5.3,44h-5.3
		L406.9,745.1z M415.4,785l-2.8-6.9c-0.8-1.9-1.3-2.5-2.8-2.5h-0.6v-0.9c5.7-1.9,10.1-5.3,11.9-7.9c-0.9-0.6-1.9-1.6-1.9-3.1
		c0-2.2,1.9-3.5,3.8-3.5c1.9,0,3.1,1.2,3.1,2.8c0,1.9-0.6,3.1-2.5,5c-2,2-4.4,3.5-7.9,5l5,10.7c0.8,1.7,1.6,3.1,3.1,3.1
		c1.9,0,3.1-0.9,3.5-1.6v1.3c-0.5,0.9-2.5,3.1-5.7,3.1C419.1,789.7,416.9,788.9,415.4,785z"/>
	<path fill="#FFFFFF" d="M449.9,764c-0.2-0.9-0.9-1.2-1.6-1.3l-2.2-0.3v-0.9c0,0,1.9-0.9,4.4-0.9c2.8,0,4.2,0.9,4.7,3.8l3.1,19.5
		c2.4-2.7,7.3-9.3,9.1-14.2l-0.9-5.6c-0.2-0.9-0.9-1.2-1.6-1.3l-1.9-0.3v-0.9c0,0,1.6-0.9,4.1-0.9c2.8,0,4.2,0.9,4.7,3.8l3.1,19.5
		c2.8-3.1,8.8-11.6,9.4-16.7c-1.6-0.6-2.8-1.9-2.8-3.5c0-2.1,1.6-3.5,3.5-3.5c1.9,0,3.8,1.3,3.8,3.5c0,5.7-6.6,15.1-12.9,21.7
		c-0.9,0.9-3.1,3.1-4.1,4.4H471l-2.8-16.3c-2.4,4.1-5.6,8.4-8.9,11.9c-0.9,0.9-3.1,3.1-4.1,4.4h-0.9L449.9,764z"/>
	<path fill="#FFFFFF" d="M495.8,784.1c0-0.6,0.2-2.2,0.3-2.8l1.9-15.4c0.2-1.6-0.6-2.4-2.2-2.8l-2.5-0.6v-0.9
		c1.3-0.3,4.1-0.9,7.2-0.9c2.8,0,3.1,2.5,2.8,5.3l-1.9,15.4c-0.1,0.6-0.3,2.5-0.3,2.8c0,1.9,0.7,2.8,2.2,2.8c1.9,0,3.8-0.6,4.4-0.9
		v0.9c-0.9,0.9-3.1,2.8-6.9,2.8C497.7,789.7,495.8,787.8,495.8,784.1z M499.9,746.7c0-2.2,1.3-4.1,3.5-4.1c1.9,0,2.5,1.3,2.5,3.1
		c0,2.2-1.3,4.1-3.5,4.1C500.5,749.8,499.9,748.5,499.9,746.7z"/>
	<path fill="#FFFFFF" d="M514.7,783.8c0-1.9,0.2-3.5,0.3-5l1.9-15.1h-4.4v-2.5h4.7l0.9-7.9l4.7-0.9h0.6l-0.9,8.8h7.2v2.5h-7.5
		l-1.9,15.1c-0.2,1.3-0.3,3.1-0.3,5c0,2.2,1.6,3.1,3.8,3.1c1.9,0,3.8-0.9,4.7-1.6v0.9c-1.6,1.6-4.1,3.5-7.9,3.5
		C517.2,789.7,514.7,787.8,514.7,783.8z"/>
	<path fill="#FFFFFF" d="M551.8,784.1c0-0.6,0.2-2.2,0.3-2.8l1.3-9.7c0.1-0.6,0.3-2.5,0.3-2.8c0-3.8-1.6-5-4.4-5
		c-2.5,0-4.9,2.1-6.5,4.3l-2.6,21.1h-5.3l5.3-44c0.2-1.6,0.1-1.5-1.6-1.9l-2.8-0.6v-1.3l6-0.6c1.6-0.2,3.6-0.5,4.7-1.3l-0.9,5.7
		l-2.6,21.6c1.9-3.8,4.8-6.5,9.2-6.5c4.7,0,6.9,2.8,6.9,8.2c0,0.6-0.2,2.8-0.3,3.5l-1.3,9.7c-0.1,0.6-0.3,2.2-0.3,2.5
		c0,1.9,0.7,2.8,2.2,2.8c1.9,0,3.8-0.6,4.4-0.9v0.9c-0.9,0.9-3.1,2.8-6.9,2.8C553,789.7,551.8,787.2,551.8,784.1z"/>
	<path fill="#FFFFFF" d="M576.3,804.5c0-2.2,1.9-3.1,3.5-3.1c1.6,0,2.5,0.6,3.5,2.8c3.8-2.5,7.9-8.8,10.1-13.2l-7.5-26.7
		c-0.2-0.9-0.9-1.4-1.9-1.6l-1.6-0.3v-0.9c0,0,1.9-0.9,4.4-0.9c3.1,0,4,1,4.7,3.8l5.7,21.1c2.8-4.1,6.9-12.9,7.2-18.2
		c-1.6-0.6-2.8-1.9-2.8-3.5c0-2.1,1.6-3.5,3.5-3.5c1.9,0,3.8,1.3,3.8,3.5c0,6-7.2,19.2-12.3,25.8c-2.5,4.4-9.1,18.5-16,18.5
		C578.1,808,576.3,806.7,576.3,804.5z"/>
	<path fill="#FFFFFF" d="M614.6,778.4c0-10.1,5.7-18.2,15.4-18.2c6.9,0,10.7,3.5,10.7,11.3c0,10.1-5.3,18.2-15.1,18.2
		C618.7,789.7,614.6,786.3,614.6,778.4z M635,771.5c0-5-1.3-9.4-5.3-9.4c-5.7,0-9.4,7.2-9.4,16.3c0,5,1.6,9.4,5.7,9.4
		C631.6,787.8,635,780.6,635,771.5z"/>
	<path fill="#FFFFFF" d="M650.7,781.6c0-0.6,0.2-2.2,0.3-2.8l1.6-12.6c0.2-1.6-0.2-2.8-1.9-3.1l-2.8-0.6v-0.9c1.3-0.3,4.4-0.9,6-0.9
		c2.8,0,4.6,1.8,4.1,5.3l-1.6,12.6c-0.1,0.7-0.3,2.2-0.3,2.8c0,3.8,1.3,5,4.1,5c3,0,5.1-1.4,6.6-2.8c0.1-0.8,0.2-1.7,0.3-2.2
		l2.5-19.8l5.7-1.3l-0.9,5.7l-1.9,15.4c-0.1,0.6-0.3,2.5-0.3,2.8c0,1.9,0.7,2.8,2.2,2.8c1.9,0,3.8-0.6,4.4-0.9v0.9
		c-0.9,0.9-3.8,2.8-7.2,2.8c-3,0-4.6-1.7-4.7-5.3c-2.2,2.8-5.1,5.3-9.1,5.3C652.9,789.7,650.7,786.9,650.7,781.6z"/>
	<path fill="#FFFFFF" d="M687.5,765.8c0.2-1.6-0.2-2.4-1.9-2.8l-2.8-0.6v-0.9c1.3-0.3,4.1-0.9,6.3-0.9c2.8,0,4.2,1.8,3.8,5.3l-0.2,2
		c1.9-4.3,4.4-7.7,8.1-7.7c1.6,0,2.8,1.3,2.8,2.8c0,2.2-1.3,3.5-3.1,3.5c-1.9,0-2.8-1.3-3.1-2.2c-1.4,0-3.7,2.9-4.8,4.6l-2.4,20.2
		h-5.3L687.5,765.8z"/>
	<path fill="#FFFFFF" d="M741.2,784.1c0-0.6,0.2-2.2,0.3-2.8l1.3-9.7c0.1-0.6,0.3-2.5,0.3-2.8c0-3.8-1.6-5-4.4-5
		c-2.5,0-4.9,2.1-6.5,4.3l-2.6,21.1h-5.3l5.3-44c0.2-1.6,0.1-1.5-1.6-1.9l-2.8-0.6v-1.3l6-0.6c1.6-0.2,3.6-0.5,4.7-1.3l-0.9,5.7
		l-2.6,21.6c1.9-3.8,4.8-6.5,9.2-6.5c4.7,0,6.9,2.8,6.9,8.2c0,0.6-0.2,2.8-0.3,3.5l-1.3,9.7c-0.1,0.6-0.3,2.2-0.3,2.5
		c0,1.9,0.7,2.8,2.2,2.8c1.9,0,3.8-0.6,4.4-0.9v0.9c-0.9,0.9-3.1,2.8-6.9,2.8C742.5,789.7,741.2,787.2,741.2,784.1z"/>
	<path fill="#FFFFFF" d="M758.5,778.7c0-11.6,7.2-18.5,16-18.5c2.1,0,3.8,0.6,4.9,1.2l5.4-1.2l-0.9,5.7l-1.9,15.7
		c-0.1,0.6-0.3,2.2-0.3,2.5c0,1.9,0.7,2.8,2.2,2.8c1.9,0,3.8-0.6,4.4-0.9v0.9c-0.9,0.9-3.5,2.8-7.2,2.8c-2.9,0-4.5-1.6-4.7-4.9
		c-1.1,1.7-3.9,4.9-8.8,4.9C762.3,789.7,758.5,786,758.5,778.7z M776.4,783.8c0.1-0.8,0.2-2,0.3-2.5l2.4-18.5h-3
		c-7.9,0-11.9,7.2-11.9,15.1c0,5.3,1.6,8.5,6,8.5C773.1,786.3,775.2,784.9,776.4,783.8z"/>
	<path fill="#FFFFFF" d="M811.6,784.1c0-0.6,0.2-2.2,0.3-2.8l1.3-9.7c0.1-0.6,0.3-2.5,0.3-2.8c0-3.8-1.6-5-4.4-5
		c-2.5,0-4.9,2.1-6.5,4.3l-2.6,21.1h-5.3l2.8-23.3c0.2-1.6-0.2-2.4-1.9-2.8l-2.8-0.6v-0.9c1.3-0.3,4.1-0.9,6.3-0.9
		c2.8,0,4.2,1.8,3.8,5.3l-0.1,0.9c1.9-3.8,4.9-6.5,9.2-6.5c4.7,0,6.9,2.8,6.9,8.2c0,0.6-0.2,2.8-0.3,3.5l-1.3,9.7
		c-0.1,0.6-0.3,2.2-0.3,2.5c0,1.9,0.7,2.8,2.2,2.8c1.9,0,3.8-0.6,4.4-0.9v0.9c-0.9,0.9-3.1,2.8-6.9,2.8
		C812.9,789.7,811.6,787.2,811.6,784.1z"/>
	<path fill="#FFFFFF" d="M828.9,778.7c0-11.6,7.2-18.5,16-18.5c2,0,3.5,0.5,4.6,1.1l2-16.2c0.2-1.6,0.1-1.5-1.6-1.9l-2.8-0.6v-1.3
		l5.7-0.6c1.6-0.2,3.9-0.5,5-1.3l-0.9,5.7l-4.4,36.1c-0.1,0.6-0.3,2.5-0.3,2.8c0,1.9,0.7,2.8,2.2,2.8c1.9,0,3.8-0.6,4.4-0.9v0.9
		c-0.9,0.9-3.5,2.8-7.2,2.8c-2.9,0-4.5-1.6-4.7-4.9c-1.1,1.7-3.9,4.9-8.8,4.9C832.7,789.7,828.9,786,828.9,778.7z M846.8,783.8
		c0.1-0.8,0.2-2,0.3-2.5l2.3-18.5h-2.9c-7.9,0-11.9,7.2-11.9,15.1c0,5.3,1.6,8.5,6,8.5C843.5,786.3,845.6,784.9,846.8,783.8z"/>
	<path fill="#FFFFFF" d="M862.9,783.4c0-2.7,1.9-3.8,3.5-3.8c1.6,0,3.1,0.9,3.1,3.1c0,1.2-0.9,2.5-1.6,3.1c0.6,1.3,2.5,1.9,4.1,1.9
		c4.1,0,6-2.4,6-5.3c0-2.5-1.5-3.6-2.5-4.4l-3.8-2.8c-2.5-1.9-4.7-3.7-4.7-6.9c0-5.7,4.6-8.2,9.7-8.2c4.4,0,7.2,1.9,7.2,4.1
		c0,1.9-1,2.8-2.5,2.8c-2.6,0-3.1-1.9-3.5-4.7c-0.3-0.3-1.3-0.6-2.2-0.6c-2.5,0-4.1,2.2-4.1,4.4s1.3,3.9,2.8,5l3.5,2.5
		c1.4,1,5,3.1,5,7.9c0,5.7-5.3,8.2-11,8.2C867.4,789.7,862.9,787,862.9,783.4z"/>
</g>
<g>
	<path fill="#FFFFFF" d="M593.5,221.3c0,1.8,1,2.2,2.3,0.9l23.5-23.7c1.2-1.2,2.3-3.7,2.3-5.5v-3.9c0-1.8-1-2.2-2.3-0.9l-23.5,23.7
		c-1.2,1.2-2.3,3.7-2.3,5.5V221.3z"/>
	<path fill="#FFFFFF" d="M593.5,249.5c0,1.8,1,2.2,2.3,0.9l23.5-23.7c1.2-1.2,2.3-3.7,2.3-5.5v-3.9c0-1.8-1-2.2-2.3-0.9l-23.5,23.7
		c-1.2,1.2-2.3,3.7-2.3,5.5V249.5z"/>
	<path fill="#FFFFFF" d="M593.5,277.7c0,1.8,1,2.2,2.3,0.9l23.5-23.7c1.2-1.2,2.3-3.7,2.3-5.5v-3.9c0-1.8-1-2.2-2.3-0.9l-23.5,23.7
		c-1.2,1.2-2.3,3.7-2.3,5.5V277.7z"/>
	<path fill="#FFFFFF" d="M593.5,305.9c0,1.8,1,2.2,2.3,0.9l23.5-23.7c1.2-1.2,2.3-3.7,2.3-5.5v-3.9c0-1.8-1-2.2-2.3-0.9l-23.5,23.7
		c-1.2,1.2-2.3,3.7-2.3,5.5V305.9z"/>
	<path fill="#FFFFFF" d="M585.4,221.3c0,1.8-1,2.2-2.3,0.9l-23.5-23.7c-1.2-1.2-2.3-3.7-2.3-5.5v-3.9c0-1.8,1-2.2,2.3-0.9l23.5,23.7
		c1.2,1.2,2.3,3.7,2.3,5.5V221.3z"/>
	<path fill="#FFFFFF" d="M585.4,249.5c0,1.8-1,2.2-2.3,0.9l-23.5-23.7c-1.2-1.2-2.3-3.7-2.3-5.5v-3.9c0-1.8,1-2.2,2.3-0.9l23.5,23.7
		c1.2,1.2,2.3,3.7,2.3,5.5V249.5z"/>
	<path fill="#FFFFFF" d="M585.4,277.7c0,1.8-1,2.2-2.3,0.9L559.7,255c-1.2-1.2-2.3-3.7-2.3-5.5v-3.9c0-1.8,1-2.2,2.3-0.9l23.5,23.7
		c1.2,1.2,2.3,3.7,2.3,5.5V277.7z"/>
	<path fill="#FFFFFF" d="M585.4,305.9c0,1.8-1,2.2-2.3,0.9l-23.5-23.7c-1.2-1.2-2.3-3.7-2.3-5.5v-3.9c0-1.8,1-2.2,2.3-0.9l23.5,23.7
		c1.2,1.2,2.3,3.7,2.3,5.5V305.9z"/>
</g>
</svg>
