<?xml version="1.0" encoding="utf-8"?>
<!-- Generator: Adobe Illustrator 18.0.0, SVG Export Plug-In . SVG Version: 6.00 Build 0)  -->
<!DOCTYPE svg PUBLIC "-//W3C//DTD SVG 1.1//EN" "http://www.w3.org/Graphics/SVG/1.1/DTD/svg11.dtd">
<svg version="1.1" id="Layer_1" xmlns="http://www.w3.org/2000/svg" xmlns:xlink="http://www.w3.org/1999/xlink" x="0px" y="0px"
	 viewBox="0 0 497 151.7" enable-background="new 0 0 497 151.7" xml:space="preserve">
<text transform="matrix(1 0 0 1 117.2454 146.2624)"><tspan x="0" y="0" fill="#FFFFFF" font-family="'CoronaLTStd'" font-size="25.3297">M</tspan><tspan x="23.7" y="0" fill="#FFFFFF" font-family="'CoronaLTStd'" font-size="25.3297">ade</tspan><tspan x="71.5" y="0" fill="#FFFFFF" font-family="'CoronaLTStd'" font-size="25.3297" letter-spacing="-1"> </tspan><tspan x="77.1" y="0" fill="#FFFFFF" font-family="'CoronaLTStd'" font-size="25.3297">and </tspan><tspan x="133.4" y="0" fill="#FFFFFF" font-family="'CoronaLTStd'" font-size="25.3297">M</tspan><tspan x="157.1" y="0" fill="#FFFFFF" font-family="'CoronaLTStd'" font-size="25.3297">easured</tspan></text>
<path fill="#FFFFFF" d="M488.1,3.5h1.7V2.3h-4.7v1.1h1.7V8h1.3V3.5z M495.5,4.2V8h1.2V2.3h-1.3l-1.5,2.4l-1.5-2.4H491V8h1.2V4.2
	l1.6,2.5h0.1L495.5,4.2z"/>
<polygon fill="#FFFFFF" points="497,61.9 497,61 468.1,61 468.1,2.2 442.1,2.2 442.1,73.9 491.7,73.9 "/>
<polygon fill="#FFFFFF" points="346.3,73.9 346.3,2.2 320.3,2.2 320.3,31.2 293.6,31.2 293.6,2.2 267.6,2.2 267.6,73.9 293.6,73.9 
	293.6,43.9 320.3,43.9 320.3,73.9 "/>
<path fill="#FFFFFF" d="M252.9,51.5c0-16-16.5-21.7-27.8-24.9c-12.8-3.7-20.8-4.2-20.8-9.4c0-4.8,6.9-5.9,12.7-5.9
	c5.7,0,16,2.9,21.9,8.2l10-8.2C240.7,3.7,231,0,216.7,0s-35.5,5.1-35.5,25.2c0,16,16.8,20.5,26.8,23.3c10.3,3,20.5,4.4,20.5,10.8
	c0,5-9,5.4-12.8,5.4c-9.7,0-20.6-6.1-25.7-11.3l-10.3,8.7c4.7,5.7,16.8,14.1,36,14.1C234.7,76.3,252.9,69,252.9,51.5"/>
<path fill="#FFFFFF" d="M163.8,44V2.2h-26v44.9c0,8.3-2.9,14.2-12.1,14.2c-9,0-11.8-5.9-11.8-14.2V2.2h-26V44c0,21.5,16,33,37.8,33
	C147.5,77,163.8,65.5,163.8,44"/>
<path fill="#FFFFFF" d="M44.2,53c0,8.8-6.3,10-11.5,10h-6.9V42.7h4.3C34.8,42.7,44.2,42.8,44.2,53 M43.4,23
	c0,6.4-4.1,11.6-17.5,11.6V13.1h6.3C39.1,13.1,43.4,17.2,43.4,23 M72.6,54c0-14.6-14.2-18.2-18.9-18.2v-0.6
	c4.7-0.4,16.1-5.2,16.1-16.5c0-14.2-15.3-16.6-27.9-16.6H0v71.7h44.4C54.9,73.9,72.6,70.9,72.6,54"/>
<polygon fill="#FFFFFF" points="428.2,61.9 428.2,61 393.6,61 393.6,43.9 424.2,43.9 424.2,31.2 393.6,31.2 393.6,15.1 424.2,15.1 
	424.2,14.2 418.9,2.2 367.5,2.2 367.5,73.9 422.8,73.9 "/>
</svg>
