<?xml version="1.0" encoding="utf-8"?>
<!-- Generator: Adobe Illustrator 18.0.0, SVG Export Plug-In . SVG Version: 6.00 Build 0)  -->
<!DOCTYPE svg PUBLIC "-//W3C//DTD SVG 1.1//EN" "http://www.w3.org/Graphics/SVG/1.1/DTD/svg11.dtd">
<svg version="1.1" id="Layer_1" xmlns="http://www.w3.org/2000/svg" xmlns:xlink="http://www.w3.org/1999/xlink" x="0px" y="0px"
	 viewBox="0 0 612 792" enable-background="new 0 0 612 792" xml:space="preserve">
<g enable-background="new    ">
	<path fill="#FFFFFF" d="M158.9,482.7h-1.7l-6.1-21.3h-0.5v17.8c0,0.5,0,2.1,2.2,2.1h1.3v1.4h-8.6v-1.4h1.3c2.2,0,2.2-1.6,2.2-2.1
		v-15.7c0-0.5,0-2.1-2.2-2.1h-1.3v-1.4h8.7l4.7,16.8h0.1l4.8-16.8h8.6v1.4c-1.9,0-3.6-0.3-3.6,2.2l0,15.6c0,0.5,0,2.1,2.2,2.1h1.3
		v1.4h-10.6v-1.4h1.3c2.2,0,2.2-1.6,2.2-2.1v-17.8H165L158.9,482.7z"/>
</g>
<g enable-background="new    ">
	<path fill="#FFFFFF" d="M182.4,466.1c2.2,0,5.5,0.8,6.3,3.2c0.3,0.7,0.3,2,0.4,3.2v7.1c0,0.6-0.1,1.8,0.8,1.8
		c0.5,0,0.8-0.6,1.3-0.6c0.2,0,0.3,0.3,0.3,0.3c0,0.8-1.8,2.1-3,2.1c-1.7,0-2.2-1.2-2.6-2.7c-1.9,1.6-3.6,2.7-6.2,2.7
		c-2.5,0-4.2-1.7-4.2-4.1c0-2.2,1.2-3.2,2.9-4.2c2.1-1.1,4.8-1.5,7.4-1.6v-2.2c0-2.5-1.2-3.7-3.6-3.7c-0.6,0-2.2,0-2.2,0.9
		c0,0.2,0.5,0.7,0.5,1.4c0,1.4-0.7,2.2-2.2,2.2c-1.3,0-1.9-0.8-1.9-2.1C176.5,467.5,179,466.1,182.4,466.1z M179.1,478.7
		c0,1.5,0.9,2.7,2.4,2.7c1.6,0,3.2-1.2,3.9-2.6c0.6-1.4,0.4-2.7,0.4-4.1C183.1,474.8,179.1,475,179.1,478.7z"/>
	<path fill="#FFFFFF" d="M209.6,479c0,2,0.1,2.4,2.2,2.3v1.3c-0.8,0-1.7,0.1-2.5,0.1c-0.9,0.1-1.8,0.2-2.7,0.5v-3.8h-0.1
		c-1,2.2-2.7,3.8-5.2,3.8c-4.2,0-7-4.4-7-8.3c0-4.1,2.4-8.9,7-8.9c2.3,0,3.7,1.2,4.8,3l0.1-0.1v-6.3c-0.1-2.5-1-2-3.1-2.1v-1.2
		c1.1,0,2.1,0,3.2-0.1c1.1-0.1,2.1-0.2,3.2-0.4V479z M202.1,481.6c3.2,0,4.3-4,4.3-6.6c0-2.9-0.6-7.4-4.4-7.4c-3.5,0-4,4.8-4,7.3
		C198,477.5,198.8,481.6,202.1,481.6z"/>
	<path fill="#FFFFFF" d="M218.8,474.6c0,3.8,1.9,6.8,5.5,6.8c2.1,0,4.1-1.5,5.2-3.1l1.2,0.7c-1.7,2.6-4,4.3-7.7,4.3
		c-4.7,0-7.8-4.4-7.7-8.5c0-4.4,3.1-8.6,7.7-8.6c4.6,0,7.7,4.1,7.7,8.5H218.8z M227.1,473.3c0-2.2-1.1-5.9-4.1-5.9s-4.1,3.6-4.1,5.9
		H227.1z"/>
</g>
<g enable-background="new    ">
</g>
<g enable-background="new    ">
	<path fill="#FFFFFF" d="M248.2,466.1c2.2,0,5.5,0.8,6.3,3.2c0.3,0.7,0.3,2,0.4,3.2v7.1c0,0.6-0.1,1.8,0.8,1.8
		c0.5,0,0.8-0.6,1.3-0.6c0.2,0,0.3,0.3,0.3,0.3c0,0.8-1.8,2.1-3,2.1c-1.7,0-2.2-1.2-2.6-2.7c-1.9,1.6-3.6,2.7-6.2,2.7
		c-2.5,0-4.2-1.7-4.2-4.1c0-2.2,1.2-3.2,2.9-4.2c2.1-1.1,4.8-1.5,7.4-1.6v-2.2c0-2.5-1.2-3.7-3.6-3.7c-0.6,0-2.2,0-2.2,0.9
		c0,0.2,0.5,0.7,0.5,1.4c0,1.4-0.7,2.2-2.2,2.2c-1.3,0-1.9-0.8-1.9-2.1C242.3,467.5,244.7,466.1,248.2,466.1z M244.8,478.7
		c0,1.5,0.9,2.7,2.4,2.7c1.6,0,3.2-1.2,3.9-2.6c0.6-1.4,0.4-2.7,0.4-4.1C248.8,474.8,244.8,475,244.8,478.7z"/>
	<path fill="#FFFFFF" d="M265.4,469.9L265.4,469.9c1.1-2.2,2.8-3.9,5.4-3.9c3.6,0,4.6,2.5,4.7,5.6v7.9c0,2,1.7,1.8,2.3,1.8v1.3h-8
		v-1.3c0.6,0,2.3,0.2,2.3-1.8V472c0-0.6,0.2-4.1-2.4-4.1c-3.3,0-4.4,3.9-4.4,6.6v5c0,2,1.4,1.8,2.3,1.8v1.3h-7.9v-1.3
		c0.6,0,2.3,0.2,2.3-1.8V470c0-1.8-0.8-1.8-2.4-1.8v-1.3c1.7-0.1,3.9-0.2,5.6-0.7V469.9z"/>
	<path fill="#FFFFFF" d="M296.2,479c0,2,0.1,2.4,2.2,2.3v1.3c-0.8,0-1.7,0.1-2.5,0.1c-0.9,0.1-1.8,0.2-2.7,0.5v-3.8h-0.1
		c-1,2.2-2.7,3.8-5.2,3.8c-4.2,0-7-4.4-7-8.3c0-4.1,2.4-8.9,7-8.9c2.3,0,3.7,1.2,4.8,3l0.1-0.1v-6.3c-0.1-2.5-1-2-3.1-2.1v-1.2
		c1.1,0,2.1,0,3.2-0.1c1.1-0.1,2.1-0.2,3.2-0.4V479z M288.6,481.6c3.2,0,4.3-4,4.3-6.6c0-2.9-0.6-7.4-4.4-7.4c-3.5,0-4,4.8-4,7.3
		C284.6,477.5,285.3,481.6,288.6,481.6z"/>
</g>
<g enable-background="new    ">
	<path fill="#FFFFFF" d="M323.1,482.7h-1.7l-6.1-21.3h-0.5v17.8c0,0.5,0,2.1,2.2,2.1h1.3v1.4h-8.6v-1.4h1.3c2.2,0,2.2-1.6,2.2-2.1
		v-15.7c0-0.5,0-2.1-2.2-2.1h-1.3v-1.4h8.7l4.7,16.8h0.1l4.8-16.8h8.6v1.4c-1.9,0-3.6-0.3-3.6,2.2l0,15.6c0,0.5,0,2.1,2.2,2.1h1.3
		v1.4h-10.6v-1.4h1.3c2.2,0,2.2-1.6,2.2-2.1v-17.8h-0.5L323.1,482.7z"/>
</g>
<g enable-background="new    ">
	<path fill="#FFFFFF" d="M343.2,474.6c0,3.8,1.9,6.8,5.5,6.8c2.1,0,4.1-1.5,5.2-3.1l1.2,0.7c-1.7,2.6-4,4.3-7.7,4.3
		c-4.7,0-7.8-4.4-7.7-8.5c0-4.4,3.1-8.6,7.7-8.6s7.7,4.1,7.7,8.5H343.2z M351.5,473.3c0-2.2-1.1-5.9-4.1-5.9s-4.1,3.6-4.1,5.9H351.5
		z"/>
	<path fill="#FFFFFF" d="M365.8,466.1c2.2,0,5.5,0.8,6.3,3.2c0.3,0.7,0.3,2,0.4,3.2v7.1c0,0.6-0.1,1.8,0.8,1.8
		c0.5,0,0.8-0.6,1.3-0.6c0.2,0,0.3,0.3,0.3,0.3c0,0.8-1.8,2.1-3,2.1c-1.7,0-2.2-1.2-2.6-2.7c-1.9,1.6-3.6,2.7-6.2,2.7
		c-2.5,0-4.2-1.7-4.2-4.1c0-2.2,1.2-3.2,2.9-4.2c2.1-1.1,4.8-1.5,7.4-1.6v-2.2c0-2.5-1.2-3.7-3.6-3.7c-0.6,0-2.2,0-2.2,0.9
		c0,0.2,0.5,0.7,0.5,1.4c0,1.4-0.7,2.2-2.2,2.2c-1.3,0-1.9-0.8-1.9-2.1C359.8,467.5,362.3,466.1,365.8,466.1z M362.4,478.7
		c0,1.5,0.9,2.7,2.4,2.7c1.6,0,3.2-1.2,3.9-2.6c0.6-1.4,0.4-2.7,0.4-4.1C366.4,474.8,362.4,475,362.4,478.7z"/>
	<path fill="#FFFFFF" d="M379.2,477.2c0.8,2.6,2.5,4.7,5.4,4.7c1.6,0,2.9-1,2.9-2.7c0-4.3-9.2-2.2-9.2-8.6c0-2.7,2.2-4.5,4.9-4.5
		c1.8,0,3.3,1.2,3.6,1.2c0.7,0,0.9-0.4,0.9-1h1.3v4.8h-1.3c-0.8-2-2.4-3.7-4.7-3.7c-1.4,0-2.5,0.9-2.5,2.3c0,2.2,3.4,2.9,5.1,3.6
		c2.4,0.8,4.1,2.1,4.1,4.9c0,2.9-2.3,5.1-5.1,5.1c-0.7,0-2.3-0.3-3-0.7c-0.8-0.5-2.4-1-2.5,0.5h-1.3v-5.9H379.2z"/>
	<path fill="#FFFFFF" d="M405.4,479.3L405.4,479.3c-1.1,2.2-2.8,3.9-5.4,3.9c-3.6,0-4.6-2.5-4.7-5.6v-7.9c0-1.8-0.8-1.8-2.4-1.8
		v-1.3c1.7-0.1,3.9-0.2,5.6-0.7v11.4c0,0.6-0.2,4.1,2.4,4.1c3.3,0,4.4-3.9,4.4-6.6v-5c0-1.8-0.8-1.8-2.4-1.8v-1.3
		c1.7-0.1,3.9-0.2,5.6-0.7v13.5c0,1.8,0.8,1.8,2.3,1.8v1.3c-1.7,0.1-3.9,0.2-5.6,0.7V479.3z"/>
	<path fill="#FFFFFF" d="M419.2,470.7L419.2,470.7c0.7-2.7,2.6-4.6,5.1-4.6c1.7,0,3.1,1.2,3.1,3c0,1.2-1,2.1-2.2,2.1
		c-1.4,0-1.9-1-1.9-2.1c0-0.6,0.2-1,0.3-1.4c-2.4,0-3.9,2.7-3.9,5.2v6.7c0,2,1.7,1.8,3,1.8v1.3h-8.9v-1.3c0.9,0,2.7,0.2,2.7-1.8
		v-9.8c0-1.8-0.8-1.8-2.7-1.8v-1.3c1.7,0,3.6-0.2,5.4-0.6V470.7z"/>
	<path fill="#FFFFFF" d="M433.3,474.6c0,3.8,1.9,6.8,5.5,6.8c2.1,0,4.1-1.5,5.2-3.1l1.2,0.7c-1.7,2.6-4,4.3-7.7,4.3
		c-4.7,0-7.8-4.4-7.7-8.5c0-4.4,3.1-8.6,7.7-8.6s7.7,4.1,7.7,8.5H433.3z M441.6,473.3c0-2.2-1.1-5.9-4.1-5.9s-4.1,3.6-4.1,5.9H441.6
		z"/>
	<path fill="#FFFFFF" d="M464,479c0,2,0.1,2.4,2.2,2.3v1.3c-0.8,0-1.7,0.1-2.5,0.1c-0.9,0.1-1.8,0.2-2.7,0.5v-3.8H461
		c-1,2.2-2.7,3.8-5.2,3.8c-4.2,0-7-4.4-7-8.3c0-4.1,2.4-8.9,7-8.9c2.3,0,3.7,1.2,4.8,3l0.1-0.1v-6.3c-0.1-2.5-1-2-3.1-2.1v-1.2
		c1.1,0,2.1,0,3.2-0.1c1.1-0.1,2.1-0.2,3.2-0.4V479z M456.4,481.6c3.2,0,4.3-4,4.3-6.6c0-2.9-0.6-7.4-4.4-7.4c-3.5,0-4,4.8-4,7.3
		C452.4,477.5,453.1,481.6,456.4,481.6z"/>
</g>
<path fill="#FFFFFF" d="M601,306.9h2.1v-1.5h-5.8v1.4h2.1v5.7h1.6V306.9z M610.2,307.8v4.7h1.5v-7H610l-1.8,3l-1.8-3h-1.7v7h1.5
	v-4.7l2,3.1h0.1L610.2,307.8z"/>
<polygon fill="#FFFFFF" points="612,378.8 612,377.7 576.4,377.7 576.4,305.3 544.4,305.3 544.4,393.6 605.5,393.6 "/>
<polygon fill="#FFFFFF" points="426.4,393.6 426.4,305.3 394.4,305.3 394.4,341 361.5,341 361.5,305.3 329.5,305.3 329.5,393.6 
	361.5,393.6 361.5,356.7 394.4,356.7 394.4,393.6 "/>
<path fill="#FFFFFF" d="M311.4,366c0-19.7-20.3-26.7-34.2-30.7c-15.8-4.6-25.6-5.2-25.6-11.6c0-5.9,8.5-7.3,15.6-7.3
	c7,0,19.7,3.6,27,10.1l12.3-10.1c-10.1-9.4-22-13.9-39.7-13.9s-43.7,6.3-43.7,31c0,19.7,20.7,25.2,33,28.7
	c12.7,3.7,25.2,5.4,25.2,13.3c0,6.2-11.1,6.6-15.8,6.6c-11.9,0-25.4-7.5-31.6-13.9l-12.7,10.7c5.8,7,20.7,17.4,44.3,17.4
	C289,396.6,311.4,387.6,311.4,366"/>
<path fill="#FFFFFF" d="M201.7,356.8v-51.5h-32v55.3c0,10.2-3.6,17.5-14.9,17.5c-11.1,0-14.5-7.3-14.5-17.5v-55.3h-32v51.5
	c0,26.5,19.7,40.6,46.5,40.6S201.7,383.3,201.7,356.8"/>
<path fill="#FFFFFF" d="M54.4,367.9c0,10.8-7.8,12.3-14.2,12.3h-8.5v-25h5.3C42.9,355.2,54.4,355.3,54.4,367.9 M53.4,330.9
	c0,7.9-5,14.3-21.5,14.3v-26.5h7.8C48.1,318.7,53.4,323.8,53.4,330.9 M89.4,369.1c0-18-17.5-22.4-23.3-22.4v-0.7
	c5.8-0.5,19.8-6.4,19.8-20.3c0-17.5-18.8-20.4-34.4-20.4H0v88.3h54.7C67.6,393.6,89.4,389.9,89.4,369.1"/>
<polygon fill="#FFFFFF" points="527.3,378.8 527.3,377.7 484.7,377.7 484.7,356.7 522.4,356.7 522.4,341 484.7,341 484.7,321.2 
	522.4,321.2 522.4,320.1 515.8,305.3 452.5,305.3 452.5,393.6 520.6,393.6 "/>
</svg>
