<?xml version="1.0" encoding="utf-8"?>
<!-- Generator: Adobe Illustrator 21.0.0, SVG Export Plug-In . SVG Version: 6.00 Build 0)  -->
<svg version="1.1" id="Layer_1" xmlns="http://www.w3.org/2000/svg" xmlns:xlink="http://www.w3.org/1999/xlink" x="0px" y="0px"
	 viewBox="0 0 603.9 95" style="enable-background:new 0 0 603.9 95;" xml:space="preserve">
<style type="text/css">
	.st0{fill:#FFFFFF;}
</style>
<g>
	<path class="st0" d="M53.7,64.4c0,10.7-7.7,12.2-13.9,12.2h-8.4V51.9h5.3C42.3,51.8,53.7,52,53.7,64.4 M52.7,27.9
		c0,7.8-5,14-21.2,14V15.8h7.7C47.5,15.9,52.7,20.9,52.7,27.9 M88.2,65.6c0-17.7-17.3-22.2-23-22.2v-0.7c5.7-0.5,19.6-6.3,19.6-20
		c0-17.3-18.6-20.1-33.9-20.1H0v87.1h53.9C66.7,89.8,88.2,86.1,88.2,65.6"/>
	<path class="st0" d="M198.9,53.5V2.7h-31.6v54.6c0,10.1-3.5,17.3-14.7,17.3c-10.9,0-14.3-7.2-14.3-17.3V2.7h-31.6v50.8
		c0,26.1,19.5,40.1,45.9,40.1C179.2,93.6,198.9,79.5,198.9,53.5"/>
	<g>
		<path class="st0" d="M307.3,62.5c0-19.5-20-26.3-33.8-30.3c-15.5-4.5-25.3-5.1-25.3-11.5c0-5.8,8.4-7.2,15.4-7.2
			c6.9,0,19.5,3.5,26.6,10l12.2-10c-10-9.2-21.7-13.6-39.2-13.6c-17.4,0-43.1,6.2-43.1,30.7c0,19.5,20.4,24.9,32.6,28.4
			c12.6,3.6,24.9,5.4,24.9,13.1c0,6.1-10.9,6.6-15.5,6.6c-11.8,0-25-7.4-31.2-13.8l-12.6,10.5c5.7,6.9,20.4,17.2,43.8,17.2
			C285.1,92.6,307.3,83.8,307.3,62.5"/>
	</g>
	<polygon class="st0" points="420.7,89.8 420.7,2.7 389.1,2.7 389.1,37.9 356.7,37.9 356.7,2.7 325.1,2.7 325.1,89.8 356.7,89.8 
		356.7,53.3 389.1,53.3 389.1,89.8 	"/>
	<polygon class="st0" points="520.3,75.2 520.3,74.1 478.3,74.1 478.3,53.3 515.4,53.3 515.4,37.9 478.3,37.9 478.3,18.3 
		515.4,18.3 515.4,17.3 508.9,2.7 446.5,2.7 446.5,89.8 513.7,89.8 	"/>
	<polygon class="st0" points="537.2,2.7 537.2,89.8 597.4,89.8 603.9,75.2 603.9,74.1 568.8,74.1 568.8,2.7 	"/>
	<path class="st0" d="M593,4.2h2.1V2.8h-5.7v1.4h2.1v5.5h1.6L593,4.2L593,4.2z M602,5v4.7h1.5V2.8h-1.6l-1.8,2.9l-1.8-2.9h-1.7v6.9
		h1.5V5l1.9,3h0.1L602,5z"/>
</g>
</svg>
