<?xml version="1.0" encoding="utf-8"?>
<!-- Generator: Adobe Illustrator 18.0.0, SVG Export Plug-In . SVG Version: 6.00 Build 0)  -->
<!DOCTYPE svg PUBLIC "-//W3C//DTD SVG 1.1//EN" "http://www.w3.org/Graphics/SVG/1.1/DTD/svg11.dtd">
<svg version="1.1" id="Layer_1" xmlns="http://www.w3.org/2000/svg" xmlns:xlink="http://www.w3.org/1999/xlink" x="0px" y="0px"
	 viewBox="0 0 500 250" enable-background="new 0 0 500 250" xml:space="preserve">
<path fill="#FFFFFF" d="M489,90.1h1.7V89H486v1.1h1.7v4.5h1.3V90.1z M496.4,90.8v3.8h1.2V89h-1.3l-1.5,2.4l-1.5-2.4h-1.4v5.7h1.2
	v-3.8l1.6,2.5h0.1L496.4,90.8z"/>
<polygon fill="#FFFFFF" points="497.9,148.3 497.9,147.4 469.1,147.4 469.1,88.9 443.2,88.9 443.2,160.3 492.6,160.3 "/>
<polygon fill="#FFFFFF" points="347.8,160.3 347.8,88.9 321.9,88.9 321.9,117.8 295.3,117.8 295.3,88.9 269.4,88.9 269.4,160.3 
	295.3,160.3 295.3,130.4 321.9,130.4 321.9,160.3 "/>
<path fill="#FFFFFF" d="M254.8,137.9c0-15.9-16.4-21.6-27.7-24.8c-12.7-3.7-20.7-4.2-20.7-9.4c0-4.8,6.9-5.9,12.6-5.9
	c5.6,0,15.9,2.9,21.8,8.2l10-8.2c-8.2-7.5-17.8-11.2-32.1-11.2c-14.3,0-35.3,5.1-35.3,25.1c0,15.9,16.7,20.4,26.7,23.2
	c10.3,3,20.4,4.4,20.4,10.7c0,5-9,5.4-12.7,5.4c-9.6,0-20.5-6.1-25.6-11.3l-10.3,8.6c4.6,5.6,16.7,14.1,35.9,14.1
	C236.7,162.6,254.8,155.4,254.8,137.9"/>
<path fill="#FFFFFF" d="M166,130.5V88.9h-25.9v44.7c0,8.3-2.9,14.2-12.1,14.2c-9,0-11.7-5.9-11.7-14.2V88.9H90.4v41.6
	c0,21.4,15.9,32.9,37.6,32.9C149.9,163.4,166,151.9,166,130.5"/>
<path fill="#FFFFFF" d="M47,139.5c0,8.7-6.3,10-11.4,10h-6.9v-20.3h4.3C37.6,129.2,47,129.3,47,139.5 M46.1,109.6
	c0,6.4-4.1,11.5-17.4,11.5V99.7h6.3C41.9,99.7,46.1,103.8,46.1,109.6 M75.2,140.5c0-14.5-14.2-18.2-18.8-18.2v-0.6
	c4.6-0.4,16.1-5.2,16.1-16.4c0-14.2-15.3-16.5-27.8-16.5H3v71.4h44.2C57.6,160.3,75.2,157.3,75.2,140.5"/>
<polygon fill="#FFFFFF" points="429.4,148.3 429.4,147.4 395,147.4 395,130.4 425.4,130.4 425.4,117.8 395,117.8 395,101.7 
	425.4,101.7 425.4,100.8 420.1,88.9 368.9,88.9 368.9,160.3 424,160.3 "/>
</svg>
